<svg xmlns="http://www.w3.org/2000/svg" viewBox="0 0 24 24">
 <defs>
   <linearGradient id="grad" x1="0%" y1="0%" x2="100%" y2="0%">
     <stop offset="0%" style="stop-color:#3b82f6;stop-opacity:1" />
     <stop offset="100%" style="stop-color:#6366f1;stop-opacity:1" />
   </linearGradient>
 </defs>
 <rect width="24" height="24" rx="6" fill="url(#grad)"/>
 <path d="M9.5 2A2.5 2.5 0 0 1 12 4.5v15a2.5 2.5 0 0 1-4.96.44 2.5 2.5 0 0 1-2.96-3.08 3 3 0 0 1-.34-5.58 2.5 2.5 0 0 1 1.32-4.24 2.5 2.5 0 0 1 3.96-.44Z M14.5 2A2.5 2.5 0 0 0 12 4.5v15a2.5 2.5 0 0 0 4.96.44 2.5 2.5 0 0 0 2.96-3.08 3 3 0 0 0 .34-5.58 2.5 2.5 0 0 0-1.32-4.24 2.5 2.5 0 0 0-3.96-.44Z" fill="white"/>
</svg>
